<?xml version="1.0" standalone="no"?>
<!DOCTYPE svg PUBLIC "-//W3C//DTD SVG 20010904//EN"
 "http://www.w3.org/TR/2001/REC-SVG-20010904/DTD/svg10.dtd">
<svg version="1.0" xmlns="http://www.w3.org/2000/svg"
 width="102.000000pt" height="103.000000pt" viewBox="0 0 102.000000 103.000000"
 preserveAspectRatio="xMidYMid meet">
<metadata>
Created by potrace 1.16, written by Peter Selinger 2001-2019
</metadata>
<g transform="translate(0.000000,103.000000) scale(0.100000,-0.100000)"
fill="#000000" stroke="none">
<path d="M400 1012 c-201 -66 -352 -222 -389 -400 -47 -224 73 -454 295 -564
79 -39 94 -42 179 -46 113 -5 170 11 253 72 138 102 282 366 282 517 0 157
-114 318 -280 398 -69 33 -83 36 -180 38 -80 2 -118 -1 -160 -15z m215 -243
c75 -38 84 -40 143 -35 69 6 82 -6 26 -24 -48 -16 -102 -6 -182 34 -37 18 -79
36 -94 40 -42 10 -93 -16 -106 -53 -10 -29 -9 -31 12 -31 13 0 35 -9 49 -20
21 -17 41 -20 119 -21 230 -1 254 -101 28 -119 -72 -5 -69 -6 68 -14 l142 -9
0 -63 0 -64 -140 0 c-115 0 -140 -3 -140 -14 0 -12 7 -13 32 -5 53 15 83 11
111 -15 26 -24 35 -28 90 -40 44 -10 36 -42 -14 -50 -24 -4 -51 -17 -67 -33
-25 -25 -27 -26 -116 -18 -50 4 -104 7 -121 5 -100 -9 -140 -5 -173 18 -51 37
-65 75 -70 183 -5 119 13 192 62 243 24 26 42 36 65 36 21 0 31 5 31 15 0 28
30 76 53 85 51 20 110 11 192 -31z"/>
<path d="M320 667 c-13 -7 -37 -36 -52 -66 -25 -48 -28 -63 -28 -152 0 -117
14 -160 62 -189 45 -27 117 -27 152 1 45 36 56 69 56 176 0 120 -11 162 -54
208 -44 46 -66 46 -66 1 0 -19 5 -38 10 -41 6 -3 10 -21 10 -40 0 -19 -4 -37
-10 -40 -5 -3 -10 -17 -10 -31 0 -36 -27 -30 -35 9 -8 39 -8 78 1 135 7 45 3
49 -36 29z"/>
</g>
</svg>
