<?xml version="1.0" standalone="no"?>
<!DOCTYPE svg PUBLIC "-//W3C//DTD SVG 20010904//EN"
 "http://www.w3.org/TR/2001/REC-SVG-20010904/DTD/svg10.dtd">
<svg version="1.0" xmlns="http://www.w3.org/2000/svg"
 width="102.000000pt" height="103.000000pt" viewBox="0 0 102.000000 103.000000"
 preserveAspectRatio="xMidYMid meet">
<metadata>
Created by potrace 1.16, written by Peter Selinger 2001-2019
</metadata>
<g transform="translate(0.000000,103.000000) scale(0.100000,-0.100000)"
fill="#000000" stroke="none">
<path d="M400 1012 c-201 -66 -352 -222 -389 -400 -47 -224 73 -454 295 -564
79 -39 94 -42 179 -46 113 -5 170 11 253 72 138 102 282 366 282 517 0 157
-114 318 -280 398 -69 33 -83 36 -180 38 -80 2 -118 -1 -160 -15z m212 -312
c1 -60 3 -122 5 -137 2 -16 7 -54 9 -85 6 -55 4 -59 -25 -84 -21 -18 -33 -38
-37 -65 -6 -38 -7 -39 -49 -39 -42 0 -43 1 -49 39 -4 28 -15 47 -37 64 -30 23
-31 26 -26 83 3 32 8 71 10 87 2 15 4 77 5 137 l2 110 95 0 95 0 2 -110z
m-267 -230 c4 -12 1 -27 -5 -35 -24 -29 19 -114 77 -152 31 -21 147 -25 184
-6 60 28 111 122 89 163 -16 29 -6 50 24 50 27 0 44 -33 28 -53 -6 -7 -15 -32
-22 -57 -8 -29 -27 -59 -55 -87 l-42 -43 98 0 c59 0 99 -4 99 -10 0 -6 -52
-10 -135 -10 -83 0 -135 -4 -135 -10 0 -5 -16 -10 -35 -10 -19 0 -35 5 -35 10
0 6 -52 10 -135 10 -83 0 -135 4 -135 10 0 6 40 10 100 10 l100 0 -39 35 c-28
26 -45 54 -65 110 -15 42 -24 80 -21 85 11 18 53 11 60 -10z"/>
<path d="M436 524 c-14 -36 -6 -91 15 -110 12 -10 28 -32 36 -49 l14 -30 -5
40 c-3 22 -6 51 -8 65 -2 21 2 26 24 28 20 2 28 -2 33 -18 4 -12 2 -27 -4 -33
-6 -6 -11 -27 -11 -46 l1 -36 13 30 c7 17 23 39 35 49 21 19 29 74 15 110 -9
23 -149 23 -158 0z"/>
</g>
</svg>
