<?xml version="1.0" standalone="no"?>
<!DOCTYPE svg PUBLIC "-//W3C//DTD SVG 20010904//EN"
 "http://www.w3.org/TR/2001/REC-SVG-20010904/DTD/svg10.dtd">
<svg version="1.0" xmlns="http://www.w3.org/2000/svg"
 width="102.000000pt" height="103.000000pt" viewBox="0 0 102.000000 103.000000"
 preserveAspectRatio="xMidYMid meet">
<metadata>
Created by potrace 1.16, written by Peter Selinger 2001-2019
</metadata>
<g transform="translate(0.000000,103.000000) scale(0.100000,-0.100000)"
fill="#000000" stroke="none">
<path d="M400 1012 c-201 -66 -352 -222 -389 -400 -47 -224 73 -454 295 -564
79 -39 94 -42 179 -46 113 -5 170 11 253 72 138 102 282 366 282 517 0 157
-114 318 -280 398 -69 33 -83 36 -180 38 -80 2 -118 -1 -160 -15z m231 -217
c135 -48 179 -209 95 -345 -46 -74 -54 -122 -32 -186 9 -26 16 -49 16 -51 0
-2 -56 -3 -125 -3 l-125 0 0 44 0 43 -75 12 c-41 7 -76 16 -76 19 -6 29 -11
73 -12 105 0 21 -6 37 -13 37 -24 0 -24 33 1 76 14 23 25 52 25 63 0 94 46
170 114 190 50 15 160 12 207 -4z"/>
<path d="M457 779 c-20 -5 -48 -16 -61 -24 -30 -20 -56 -82 -56 -133 0 -20
-10 -56 -22 -80 -19 -34 -20 -44 -10 -51 12 -7 20 -51 22 -127 0 -19 8 -23 63
-28 34 -4 68 -11 76 -15 7 -5 15 -27 18 -50 l6 -41 89 0 90 0 -8 27 c-5 16 -9
51 -9 78 0 41 7 63 39 115 60 101 62 199 5 265 -47 53 -158 83 -242 64z m27
-51 c3 -13 1 -24 -4 -26 -5 -2 -6 -10 -3 -18 3 -10 -2 -14 -18 -14 -17 0 -20
-3 -11 -9 9 -5 11 -17 6 -34 -4 -17 -2 -27 5 -27 6 0 11 -5 11 -11 0 -17 -73
-3 -87 17 -7 9 -10 21 -7 25 3 5 0 9 -5 9 -6 0 -11 11 -11 25 0 14 4 25 9 25
5 0 8 8 7 17 -1 20 38 43 75 43 19 0 28 -6 33 -22z m136 2 c0 -5 6 -7 13 -4
18 7 51 -32 44 -51 -4 -9 -1 -15 8 -15 10 0 15 -10 15 -30 0 -20 -5 -30 -15
-30 -9 0 -12 -6 -8 -15 7 -19 -26 -58 -44 -51 -7 3 -13 1 -13 -4 0 -6 -13 -10
-30 -10 -16 0 -30 -4 -30 -10 0 -5 5 -10 11 -10 6 0 9 -8 6 -19 -3 -14 0 -17
14 -14 10 3 17 8 14 12 -5 9 31 41 45 41 6 0 10 -9 10 -20 0 -11 -4 -20 -9
-20 -5 0 -8 -8 -7 -17 2 -25 -43 -45 -89 -39 -38 5 -70 30 -59 47 3 5 0 9 -5
9 -6 0 -11 11 -11 25 0 16 6 25 15 25 8 0 15 -6 15 -14 0 -8 7 -17 16 -20 8
-3 12 -2 9 3 -3 5 -1 12 5 16 15 9 12 25 -3 19 -18 -7 -51 32 -44 51 4 9 1 15
-8 15 -10 0 -15 10 -15 30 0 20 5 30 15 30 9 0 12 6 8 15 -7 19 26 58 44 51 7
-3 13 -1 13 4 0 6 16 10 35 10 19 0 35 -4 35 -10z"/>
</g>
</svg>
