<?xml version="1.0" standalone="no"?>
<!DOCTYPE svg PUBLIC "-//W3C//DTD SVG 20010904//EN"
 "http://www.w3.org/TR/2001/REC-SVG-20010904/DTD/svg10.dtd">
<svg version="1.0" xmlns="http://www.w3.org/2000/svg"
 width="102.000000pt" height="103.000000pt" viewBox="0 0 102.000000 103.000000"
 preserveAspectRatio="xMidYMid meet">
<metadata>
Created by potrace 1.16, written by Peter Selinger 2001-2019
</metadata>
<g transform="translate(0.000000,103.000000) scale(0.100000,-0.100000)"
fill="#000000" stroke="none">
<path d="M400 1012 c-201 -66 -352 -222 -389 -400 -47 -224 73 -454 295 -564
79 -39 94 -42 179 -46 113 -5 170 11 253 72 138 102 282 366 282 517 0 157
-114 318 -280 398 -69 33 -83 36 -180 38 -80 2 -118 -1 -160 -15z m-100 -242
l0 -30 239 0 240 0 20 -26 c20 -25 21 -39 21 -231 0 -235 -7 -262 -67 -263
-21 0 -23 5 -23 54 l0 54 -227 6 c-126 4 -237 9 -249 11 -37 8 -44 46 -44 229
0 160 2 175 21 200 12 15 30 26 45 26 20 0 24 -5 24 -30z"/>
<path d="M307 673 c-4 -3 -7 -52 -7 -107 l0 -101 -30 -17 c-33 -19 -39 -37
-12 -39 9 -1 133 -4 275 -8 l258 -6 -3 130 c-3 127 -4 130 -28 142 -27 14
-440 19 -453 6z m275 -43 c87 -67 42 -200 -66 -200 -106 0 -155 127 -75 194
39 33 104 36 141 6z"/>
<path d="M451 594 c-28 -35 -27 -76 3 -110 49 -58 146 -20 146 57 0 72 -105
109 -149 53z"/>
</g>
</svg>
