<?xml version="1.0" standalone="no"?>
<!DOCTYPE svg PUBLIC "-//W3C//DTD SVG 20010904//EN"
 "http://www.w3.org/TR/2001/REC-SVG-20010904/DTD/svg10.dtd">
<svg version="1.0" xmlns="http://www.w3.org/2000/svg"
 width="102.000000pt" height="103.000000pt" viewBox="0 0 102.000000 103.000000"
 preserveAspectRatio="xMidYMid meet">
<metadata>
Created by potrace 1.16, written by Peter Selinger 2001-2019
</metadata>
<g transform="translate(0.000000,103.000000) scale(0.100000,-0.100000)"
fill="#000000" stroke="none">
<path d="M400 1012 c-201 -66 -352 -222 -389 -400 -47 -224 73 -454 295 -564
79 -39 94 -42 179 -46 113 -5 170 11 253 72 138 102 282 366 282 517 0 157
-114 318 -280 398 -69 33 -83 36 -180 38 -80 2 -118 -1 -160 -15z m201 -213
c46 -16 95 -54 122 -94 21 -33 21 -33 54 -17 18 9 36 12 40 8 10 -10 -26 -36
-50 -36 -14 0 -17 -4 -12 -17 14 -34 17 -108 6 -149 -10 -39 -27 -64 -106
-162 -20 -25 -38 -60 -41 -83 l-7 -39 -93 0 -94 0 0 25 c0 35 -25 82 -71 132
-56 61 -82 119 -83 183 -1 30 2 66 6 81 7 22 4 26 -24 35 -17 5 -33 15 -36 22
-5 16 29 15 53 -2 16 -12 21 -9 49 27 44 58 123 97 196 97 31 0 72 -5 91 -11z"/>
<path d="M458 776 c-65 -17 -111 -56 -142 -118 -47 -95 -31 -174 58 -276 l46
-54 0 74 c0 52 7 96 24 145 34 101 42 113 74 113 26 0 30 -6 60 -89 26 -71 32
-104 32 -165 l0 -77 45 51 c62 70 85 119 85 181 0 100 -65 185 -164 214 -58
17 -57 17 -118 1z"/>
<path d="M450 335 l0 -105 25 0 c24 0 25 3 25 55 0 42 3 55 15 55 12 0 15 -13
15 -55 0 -52 1 -55 25 -55 l25 0 0 105 0 105 -25 0 c-22 0 -25 -4 -25 -40 0
-29 -4 -40 -15 -40 -11 0 -15 11 -15 40 0 36 -2 40 -25 40 l-25 0 0 -105z"/>
</g>
</svg>
