<?xml version="1.0" standalone="no"?>
<!DOCTYPE svg PUBLIC "-//W3C//DTD SVG 20010904//EN"
 "http://www.w3.org/TR/2001/REC-SVG-20010904/DTD/svg10.dtd">
<svg version="1.0" xmlns="http://www.w3.org/2000/svg"
 width="102.000000pt" height="103.000000pt" viewBox="0 0 102.000000 103.000000"
 preserveAspectRatio="xMidYMid meet">
<metadata>
Created by potrace 1.16, written by Peter Selinger 2001-2019
</metadata>
<g transform="translate(0.000000,103.000000) scale(0.100000,-0.100000)"
fill="#000000" stroke="none">
<path d="M400 1012 c-201 -66 -352 -222 -389 -400 -47 -224 73 -454 295 -564
79 -39 94 -42 179 -46 113 -5 170 11 253 72 138 102 282 366 282 517 0 157
-114 318 -280 398 -69 33 -83 36 -180 38 -80 2 -118 -1 -160 -15z m195 -373
l49 -62 30 62 c28 55 56 80 56 49 0 -7 7 -73 15 -146 13 -124 16 -135 46 -173
17 -22 29 -43 25 -46 -6 -6 -379 23 -422 34 -19 4 -25 20 -44 119 l-23 114
-58 0 c-33 0 -59 4 -59 8 0 18 107 82 136 82 41 0 49 -8 76 -72 l24 -57 39 74
c22 41 45 75 51 75 6 0 33 -28 59 -61z"/>
<path d="M560 415 c-52 -18 -88 -35 -80 -38 23 -8 271 -29 277 -23 9 8 -71 95
-87 95 -8 0 -58 -15 -110 -34z"/>
</g>
</svg>
